<svg width="20" height="20" viewBox="0 -2 20 20" fill="none" xmlns="http://www.w3.org/2000/svg">
<g>
<path d="M15.6438 8.55474L14.7483 7.78912C14.7907 7.52935 14.8126 7.26412 14.8126 6.99888C14.8126 6.73365 14.7907 6.46841 14.7483 6.20865L15.6438 5.44302C15.7114 5.3852 15.7597 5.30819 15.7824 5.22222C15.8051 5.13626 15.8011 5.04541 15.771 4.96177L15.7587 4.92623C15.5121 4.2372 15.143 3.59846 14.669 3.04088L14.6444 3.01216C14.5869 2.94456 14.5103 2.89596 14.4246 2.87278C14.339 2.84959 14.2483 2.8529 14.1645 2.88228L13.053 3.2774C12.6429 2.94107 12.1848 2.67584 11.6899 2.4899L11.4753 1.32779C11.4591 1.24035 11.4167 1.1599 11.3537 1.09714C11.2907 1.03438 11.21 0.992277 11.1225 0.976422L11.0856 0.969586C10.3733 0.841071 9.6241 0.841071 8.9118 0.969586L8.87489 0.976422C8.78738 0.992277 8.70677 1.03438 8.64377 1.09714C8.58076 1.1599 8.53835 1.24035 8.52215 1.32779L8.30614 2.49537C7.81516 2.68134 7.35795 2.94644 6.95262 3.28013L5.83289 2.88228C5.74918 2.85267 5.65843 2.84924 5.57271 2.87244C5.487 2.89564 5.41037 2.94437 5.35301 3.01216L5.3284 3.04088C4.85501 3.59886 4.48591 4.23749 4.23875 4.92623L4.22645 4.96177C4.16493 5.13267 4.21551 5.32408 4.3536 5.44302L5.26004 6.21685C5.21766 6.47388 5.19715 6.73638 5.19715 6.99752C5.19715 7.26002 5.21766 7.52252 5.26004 7.77818L4.3536 8.55201C4.28605 8.60983 4.23771 8.68685 4.215 8.77281C4.19229 8.85878 4.19628 8.94962 4.22645 9.03326L4.23875 9.06881C4.48621 9.75787 4.85262 10.3936 5.3284 10.9542L5.35301 10.9829C5.41051 11.0505 5.48714 11.0991 5.5728 11.1223C5.65847 11.1454 5.74915 11.1421 5.83289 11.1128L6.95262 10.7149C7.36004 11.0499 7.81532 11.3151 8.30614 11.4997L8.52215 12.6672C8.53835 12.7547 8.58076 12.8351 8.64377 12.8979C8.70677 12.9607 8.78738 13.0028 8.87489 13.0186L8.9118 13.0254C9.63065 13.1547 10.3668 13.1547 11.0856 13.0254L11.1225 13.0186C11.21 13.0028 11.2907 12.9607 11.3537 12.8979C11.4167 12.8351 11.4591 12.7547 11.4753 12.6672L11.6899 11.5051C12.1846 11.3197 12.6452 11.0536 13.053 10.7176L14.1645 11.1128C14.2483 11.1424 14.339 11.1458 14.4247 11.1226C14.5104 11.0994 14.5871 11.0507 14.6444 10.9829L14.669 10.9542C15.1448 10.3922 15.5112 9.75787 15.7587 9.06881L15.771 9.03326C15.8325 8.8651 15.7819 8.67369 15.6438 8.55474ZM13.7776 6.36998C13.8118 6.57642 13.8296 6.78834 13.8296 7.00025C13.8296 7.21216 13.8118 7.42408 13.7776 7.63052L13.6874 8.17877L14.7087 9.0524C14.5539 9.40908 14.3584 9.74673 14.1263 10.0587L12.8575 9.60884L12.4282 9.96158C12.1014 10.2295 11.7378 10.4401 11.344 10.5878L10.8231 10.7833L10.5784 12.1094C10.1923 12.1532 9.80243 12.1532 9.41629 12.1094L9.17157 10.7805L8.65477 10.5823C8.26512 10.4346 7.90282 10.2241 7.57879 9.95748L7.1495 9.60338L5.87254 10.0573C5.64012 9.7442 5.44598 9.4065 5.29012 9.05103L6.32235 8.1692L6.23348 7.62232C6.20067 7.41861 6.18289 7.20806 6.18289 7.00025C6.18289 6.79107 6.1993 6.58189 6.23348 6.37818L6.32235 5.83131L5.29012 4.94947C5.44461 4.59263 5.64012 4.2563 5.87254 3.94322L7.1495 4.39713L7.57879 4.04302C7.90282 3.77642 8.26512 3.56588 8.65477 3.41822L9.17293 3.22271L9.41766 1.89381C9.80184 1.85006 10.1942 1.85006 10.5798 1.89381L10.8245 3.21998L11.3454 3.41548C11.7378 3.56314 12.1028 3.77369 12.4296 4.04166L12.8589 4.39439L14.1276 3.94459C14.36 4.25767 14.5542 4.59537 14.71 4.95084L13.6888 5.82447L13.7776 6.36998ZM10.0001 4.45728C8.67118 4.45728 7.59383 5.53463 7.59383 6.86353C7.59383 8.19244 8.67118 9.26978 10.0001 9.26978C11.329 9.26978 12.4063 8.19244 12.4063 6.86353C12.4063 5.53463 11.329 4.45728 10.0001 4.45728ZM11.0829 7.94634C10.9409 8.08877 10.7721 8.20172 10.5863 8.27868C10.4004 8.35564 10.2012 8.3951 10.0001 8.39478C9.59129 8.39478 9.20711 8.23482 8.91727 7.94634C8.77484 7.80432 8.6619 7.63554 8.58494 7.44971C8.50798 7.26388 8.46852 7.06467 8.46883 6.86353C8.46883 6.45474 8.62879 6.07056 8.91727 5.78072C9.20711 5.49088 9.59129 5.33228 10.0001 5.33228C10.4089 5.33228 10.7931 5.49088 11.0829 5.78072C11.2253 5.92274 11.3383 6.09152 11.4152 6.27735C11.4922 6.46318 11.5316 6.6624 11.5313 6.86353C11.5313 7.27232 11.3714 7.6565 11.0829 7.94634Z"/>
</g>
</svg>
